<svg width="139" height="141" viewBox="0 0 139 141" fill="none" xmlns="http://www.w3.org/2000/svg">
<path d="M47.5714 83.3214C48.0178 82.8779 48.3347 82.5216 48.6875 82.2017C53.1738 78.1661 58.3802 75.5484 64.3139 74.6759C74.345 73.1998 83.1447 75.9701 90.4394 83.1397C96.6611 89.2548 102.768 95.5009 108.917 101.696C118.365 111.207 127.82 120.718 137.261 130.236C137.628 130.607 138.082 130.905 138.262 131.421C134.366 135.966 126.978 139.95 118.711 140.394C111.15 140.801 104.323 138.576 98.2381 134.046C79.0401 142.43 59.8132 142.823 40.7159 134.184C25.3273 127.226 13.9424 115.868 6.71968 100.489C-7.79049 69.6005 1.70773 32.3423 30.296 12.6371C57.8977 -6.39195 95.5737 -2.87263 119.128 21.9807C142.69 46.8413 143.468 82.9142 128.418 106.655C127.907 106.88 127.482 106.575 127.05 106.401C121.174 104.045 116.45 100.22 112.892 94.941C110.314 91.1236 108.68 86.9207 107.981 82.3398C107.686 80.4129 107.585 78.486 107.686 76.5446C107.78 74.7558 107.866 72.9671 107.988 71.1784C108.118 69.2805 107.916 67.3973 107.679 65.5285C107.002 60.2787 105.382 55.3342 102.674 50.7896C96.9995 41.2787 88.8263 35.1272 78.1543 32.4223C74.309 31.4479 70.3844 31.1498 66.4382 31.4625C48.5651 32.8804 34.8759 45.8742 31.3906 62.3946C30.6416 65.9576 30.3968 69.5641 30.6632 73.2289C31.2177 80.8274 33.6589 87.7133 38.1668 93.7994C44.2661 102.038 52.3817 107.062 62.3984 108.96C65.538 109.556 68.6921 109.585 71.8606 109.505C72.055 109.498 72.2494 109.513 72.4295 109.462C72.6023 109.411 72.8255 109.324 72.8831 109.193C72.9407 109.062 72.8687 108.815 72.7679 108.691C72.4943 108.357 72.1774 108.051 71.875 107.746C64.1122 99.9582 56.3423 92.1779 48.5795 84.3903C48.2699 84.0849 47.9818 83.7577 47.5714 83.3214Z" fill="white"/>
</svg>
