<svg width="148" height="45" viewBox="0 0 148 45" fill="none" xmlns="http://www.w3.org/2000/svg">
<path d="M15.2724 26.6212C15.4157 26.4786 15.5174 26.3641 15.6307 26.2612C17.071 24.9641 18.7424 24.1227 20.6474 23.8422C23.8678 23.3678 26.6929 24.2583 29.0348 26.5627C31.0322 28.5283 32.9926 30.536 34.9669 32.5273C38.0001 35.5844 41.0355 38.6414 44.0664 41.7008C44.1843 41.82 44.3299 41.9159 44.3877 42.0818C43.137 43.5425 40.765 44.8233 38.111 44.9659C35.6836 45.0968 33.492 44.3816 31.5385 42.9255C25.3751 45.6203 19.2025 45.7465 13.0715 42.9699C8.13109 40.7332 4.47607 37.0825 2.15729 32.1393C-2.50107 22.2109 0.548252 10.235 9.72626 3.9012C18.5875 -2.21527 30.6831 -1.08406 38.2451 6.90451C45.8095 14.8954 46.0592 26.4903 41.2274 34.1213C41.0633 34.1937 40.9269 34.0956 40.7882 34.0395C38.9017 33.2822 37.3851 32.0528 36.2431 30.356C35.4154 29.129 34.8907 27.7781 34.6664 26.3057C34.5716 25.6863 34.5393 25.0669 34.5716 24.4429C34.6017 23.8679 34.6294 23.293 34.6687 22.718C34.7103 22.108 34.6456 21.5027 34.5693 20.902C34.352 19.2146 33.8318 17.6253 32.9626 16.1645C31.1408 13.1075 28.5169 11.1302 25.0908 10.2607C23.8562 9.94755 22.5963 9.85172 21.3294 9.95222C15.5914 10.408 11.1966 14.5846 10.0777 19.8947C9.83723 21.0399 9.75863 22.1992 9.84417 23.3771C10.0222 25.8195 10.8059 28.0328 12.2531 29.9891C14.2112 32.6371 16.8167 34.2522 20.0325 34.8622C21.0404 35.0538 22.053 35.0632 23.0702 35.0375C23.1326 35.0351 23.195 35.0398 23.2528 35.0234C23.3083 35.0071 23.38 34.979 23.3985 34.937C23.417 34.8949 23.3939 34.8154 23.3615 34.7757C23.2737 34.6682 23.1719 34.57 23.0748 34.4719C20.5827 31.9687 18.0882 29.4679 15.596 26.9647C15.4966 26.8666 15.4041 26.7614 15.2724 26.6212Z"/>
<path d="M65.1239 0.220324C65.3248 0.220324 65.4771 0.220324 65.6295 0.220324C71.6274 0.220324 77.6275 0.21101 83.6254 0.222653C89.9557 0.234296 95.2171 4.67962 96.6923 10.4732C97.0248 11.7749 97.1841 13.0952 97.1194 14.4365C96.9971 17.0073 96.2237 19.3662 94.7785 21.4899C93.0054 24.0956 90.6391 25.9189 87.6609 26.9202C87.5316 26.9644 87.4047 27.0157 87.2477 27.0762C87.2846 27.16 87.3008 27.2346 87.3423 27.2881C87.4093 27.372 87.4924 27.4441 87.5686 27.521C90.4775 30.4457 93.3887 33.3705 96.2976 36.2952C98.0637 38.0696 99.8298 39.844 101.596 41.6184C101.737 41.7605 101.875 41.9025 102.032 42.0655C101.919 42.1866 101.831 42.2937 101.73 42.3845C100.266 43.7258 98.5577 44.5781 96.6046 44.8552C93.384 45.3139 90.5698 44.4034 88.2473 42.0934C84.5027 38.3653 80.7858 34.607 77.0573 30.8625C76.457 30.2594 75.8568 29.6586 75.2566 29.0579C75.1734 28.974 75.0973 28.8716 74.9403 28.8529C74.9195 28.9228 74.8941 28.9764 74.8918 29.0323C74.8849 29.1883 74.8872 29.342 74.8872 29.498C74.8872 34.4486 74.8872 39.4016 74.8849 44.3522C74.8849 44.5501 74.931 44.755 74.8318 44.932C74.6771 45.0321 74.5201 44.9949 74.37 44.9879C72.5739 44.9064 70.9325 44.3382 69.4526 43.3206C67.2432 41.8 65.8557 39.7066 65.2901 37.0683C65.1493 36.4163 65.087 35.7503 65.087 35.082C65.0847 29.4793 65.087 23.8744 65.087 18.2717C65.087 17.6872 65.0893 17.6849 65.678 17.6849C71.5235 17.6849 77.369 17.6849 83.2145 17.6849C83.66 17.6849 84.1079 17.6826 84.5396 17.5499C86.0656 17.0865 87.033 16.0665 87.2869 14.4854C87.6401 12.3012 86.1741 10.5314 84.2626 10.1612C83.8747 10.0867 83.4661 10.0936 83.0667 10.0913C80.421 10.0867 77.7753 10.0867 75.1296 10.089C74.2038 10.089 73.2896 10.0005 72.3915 9.76065C68.9332 8.84318 66.1559 5.95104 65.3478 2.43949C65.2093 1.83172 65.147 1.21697 65.0893 0.599888C65.08 0.495101 65.1077 0.390313 65.1239 0.220324Z"/>
<path d="M148 44.9715C147.817 44.9808 147.68 44.9947 147.541 44.9947C146.047 44.9971 144.55 44.9971 143.055 44.9947C141.065 44.9901 139.221 44.4622 137.532 43.4042C136.833 42.9671 136.213 42.4392 135.678 41.8067C135.326 41.3905 135.042 40.9324 134.801 40.4441C132.79 36.3818 130.777 32.3195 128.766 28.2595C127.894 26.4993 127.022 24.7367 126.147 22.9764C126.075 22.8299 126.031 22.6555 125.858 22.5672C125.698 22.6741 125.654 22.8439 125.583 22.9927C124.979 24.2484 124.379 25.504 123.78 26.762C122.547 29.3454 121.313 31.9289 120.082 34.5123C119.999 34.689 119.888 34.8611 119.874 35.0936C119.981 35.1145 120.066 35.1424 120.152 35.1448C120.446 35.1517 120.737 35.1494 121.031 35.1494C123.204 35.1494 125.379 35.1494 127.552 35.1494C127.734 35.1494 127.917 35.1587 128.105 35.1634C128.2 35.3819 128.169 35.5866 128.153 35.7796C128.047 37.0236 127.767 38.2281 127.207 39.3489C125.721 42.3253 123.354 44.1576 120.112 44.8436C119.522 44.9692 118.921 44.9971 118.319 44.9971C113.617 44.9994 108.915 44.9994 104.214 44.9971C104.063 44.9971 103.906 45.0203 103.751 44.9343C103.739 44.7483 103.848 44.6087 103.922 44.4622C104.718 42.8531 105.519 41.2463 106.319 39.6396C112.729 26.7504 119.138 13.8636 125.548 0.974413C125.636 0.795365 125.731 0.618641 125.825 0.432617C125.997 0.500051 126.022 0.646545 126.08 0.765136C126.779 2.16264 127.473 3.56248 128.169 4.96231C133.054 14.7867 137.941 24.6111 142.826 34.4355C144.466 37.7328 146.109 41.0278 147.747 44.325C147.84 44.5134 147.97 44.6924 148 44.9715Z"/>
<path d="M59.2403 44.9579C58.8441 45.0324 58.4852 44.9952 58.1356 44.951C53.787 44.3851 50.6013 41.2184 49.6761 37.4068C49.4967 36.664 49.4221 35.9096 49.4128 35.1482C49.4105 35.0085 49.4105 34.8688 49.4105 34.7291C49.4105 23.4943 49.4105 12.2595 49.4128 1.02477C49.4128 0.780281 49.3732 0.528809 49.4757 0.277337C49.6668 0.184199 49.8719 0.221454 50.0653 0.240081C51.5055 0.365818 52.8735 0.738369 54.1343 1.45786C56.7444 2.94574 58.392 5.15777 59.0655 8.0823C59.2263 8.7785 59.2845 9.48868 59.2845 10.2058C59.2799 17.0492 59.2822 23.8925 59.2822 30.7358C59.2822 35.2669 59.2822 39.7981 59.2822 44.3293C59.2822 44.5295 59.3055 44.7298 59.2403 44.9579Z"/>
</svg>
